<?xml version="1.0" encoding="UTF-8"?>
<svg id="Capa_1" data-name="Capa 1" xmlns="http://www.w3.org/2000/svg" viewBox="0 0 530.39 530.39">
  <defs>
    <style>
      .cls-1 {
        fill: #00c950;
      }

      .cls-2 {
        fill: #fff;
      }
    </style>
  </defs>
  <circle class="cls-1" cx="265.19" cy="265.19" r="265.19"/>
  <g>
    <path class="cls-2" d="M95.44,437.28h-1.34l20.25-93.03c-11.11-20.76-18.31-43.16-20.28-66.87-.12-1.46-.22-2.77-.64-3.43v-20.84c3.24-41.11,20.09-79.46,49.61-109.07,70.28-70.47,184.88-67.51,250.89,7.01,24.95,28.17,40.54,63.52,42.81,101.27.47,7.77.04,14.63.11,22.37-2.32,37.66-17.41,72.8-41.89,100.74-51.86,59.18-136.85,75.67-207.03,40.38l-92.49,21.46ZM129.31,401.65l62.65-14.2c73.47,42.86,168,14.03,204.68-62.93,17.05-35.77,18.32-77.52,2.97-114.73-13.18-31.1-36.46-56.97-65.93-72.69-68.49-36.53-153.61-12.71-193.31,53.82-16.13,27.02-22.96,58.76-18.91,90.5,2.93,21.02,10.18,40.25,21.35,58.35l-13.49,61.88Z"/>
    <path class="cls-2" d="M311.48,280.65l32.45,15.77c5.63,2.73,1,19.38-2.08,23.78-5.12,7.32-13.48,12.36-22.05,14.74-14.44,4-30.67-2.22-44.3-7.02-31.33-11.04-54.23-34.39-72.7-61.17-6.36-9.22-11.79-18.31-14.52-29.18-4.47-17.77,1.15-36.1,15.92-47.12,3.42-2.55,8.12-1.71,12.19-2,4.7-.34,8.64,1.29,10.55,5.86l12.25,29.42c1.51,3.62,1.66,6.44-.56,10.09-7.27,11.95-14.86,11.21-9.81,19.71,12.58,21.15,30.88,37.34,53.94,46.24,2.46.95,5.17,1.36,7.04-.93l14.53-17.75c1.26-1.54,4.98-1.49,7.15-.43Z"/>
  </g>
</svg>