<?xml version="1.0" encoding="UTF-8"?>
<svg id="Capa_18" data-name="Capa 18" xmlns="http://www.w3.org/2000/svg" viewBox="0 0 32 32">
  <defs>
    <style>
      .cls-1 {
        fill: #f5c400;
      }

      .cls-2 {
        fill: #16232b;
      }
    </style>
  </defs>
  <rect class="cls-2" width="32" height="32"/>
  <g>
    <path class="cls-1" d="M19.04,3.42l10.04,10.26c.17.18.48.05.48-.2V3.22c0-.15-.12-.28-.28-.28h-10.04c-.25,0-.37.3-.2.47Z"/>
    <path class="cls-1" d="M8.47,2.94H2.77c-.19,0-.34.15-.34.34v20.42c0,.09.03.17.1.24l5.91,6.04c.06.06.15.1.24.1h20.55c.19,0,.34-.15.34-.34v-5c0-.19-.15-.34-.34-.34H9.15c-.19,0-.34-.15-.34-.34V3.28c0-.19-.15-.34-.34-.34Z"/>
  </g>
</svg>