<?xml version="1.0" encoding="UTF-8"?>
<svg id="Capa_3" data-name="Capa 3" xmlns="http://www.w3.org/2000/svg" viewBox="0 0 1718.99 785.56">
  <defs>
    <style>
      .cls-1 {
        fill: #fff;
      }

      .cls-2 {
        fill: #4ccf3d;
      }
    </style>
  </defs>
  <path d="M785.55,369.93v46.01c-1.25,1.94-1.09,5.55-1.34,8.59-15.32,191.32-168.37,344.36-359.69,359.7-3.04.24-6.66.07-8.59,1.33h-46.01l-10.15-1.44C171.26,757.37,16.67,616.25,1.82,426.13l-1.05-13.42c-1.02-13.12-1.03-26.43,0-39.55l1.05-13.44C16.73,169.75,169.75,16.86,359.72,1.84l13.44-1.06c13.12-1.04,26.43-1.04,39.55,0l13.42,1.06c194.95,15.38,347.04,176.01,359.43,368.09h-.01ZM713.95,392.94c0-177.3-143.73-321.02-321.02-321.02S71.91,215.64,71.91,392.94s143.73,321.02,321.02,321.02,321.02-143.73,321.02-321.02h0Z"/>
  <path d="M195.01,413.8c-14.81-14.81-12.85-37.3.32-50.32,14.44-14.28,36.58-13.6,51.19,1l91.58,91.55,202.17-202.08c14.48-14.47,37.41-13,50.73.97,13.32,13.97,13.4,35.8-1.07,50.26l-226.64,226.58c-14.33,14.33-36.83,13.6-50.82-.4l-117.47-117.55h.01Z"/>
  <circle class="cls-2" cx="1381.16" cy="396.29" r="337.83"/>
  <g>
    <path class="cls-1" d="M1399.1,163.92c98.64,0,203.58,93.15,212.23,207.48.95,12.59.39,24.42.11,36.97-3.94,47.55-22.98,91.65-53.53,127.29-68.44,79.85-182,102.44-275.55,55.44l-124.56,28.27,27.03-123.25c-16.13-29.49-25.09-60.99-27.42-93.9-.42-8.79-.46-16.75.09-25.53,2.95-53.27,25.1-103.17,61.69-141.7,40.36-42.5,93.87-66.64,151.45-71.08h28.47ZM1204.61,572.28l82.92-18.79c97.24,56.74,222.37,18.57,270.93-83.3,22.57-47.35,24.25-102.6,3.93-151.86-17.45-41.16-48.26-75.41-87.27-96.22-90.66-48.36-203.32-16.82-255.88,71.24-21.35,35.76-30.39,77.78-25.02,119.78,3.88,27.82,13.47,53.27,28.26,77.24l-17.86,81.91Z"/>
    <path class="cls-2" d="M1204.61,572.28l17.86-81.91c-14.78-23.96-24.37-49.42-28.26-77.24-5.37-42,3.68-84.02,25.02-119.78,52.56-88.06,165.23-119.59,255.88-71.24,39.01,20.81,69.82,55.06,87.27,96.22,20.33,49.26,18.64,104.51-3.93,151.86-48.56,101.87-173.68,140.03-270.93,83.3l-82.92,18.79ZM1445.83,412.16c-3.02-1.47-7.88-1.53-9.56.53l-19.24,23.5c-2.48,3.03-6.06,2.49-9.32,1.23-30.52-11.78-54.75-33.2-71.4-61.2-6.69-11.25,3.36-10.28,12.98-26.09,2.94-4.83,2.73-8.57.74-13.35l-16.22-38.94c-2.52-6.05-7.74-8.21-13.96-7.76-5.39.39-11.61-.72-16.13,2.65-19.55,14.58-26.99,38.85-21.07,62.36,3.62,14.39,10.81,26.42,19.22,38.62,24.45,35.45,54.76,66.35,96.23,80.96,18.03,6.35,39.54,14.59,58.65,9.29,11.32-3.14,22.43-9.81,29.17-19.51,4.42-6.36,9.76-28.02,3.16-31.23l-43.27-21.05Z"/>
    <path class="cls-1" d="M1445.83,412.16l43.27,21.05c6.6,3.21,1.26,24.88-3.16,31.23-6.75,9.7-17.85,16.36-29.17,19.51-19.1,5.3-40.61-2.94-58.65-9.29-41.47-14.61-71.78-45.51-96.23-80.96-8.42-12.2-15.6-24.23-19.22-38.62-5.92-23.52,1.52-47.79,21.07-62.36,4.52-3.37,10.75-2.26,16.13-2.65,6.22-.45,11.44,1.71,13.96,7.76l16.22,38.94c1.99,4.79,2.2,8.53-.74,13.35-9.62,15.82-19.67,14.84-12.98,26.09,16.65,28,40.88,49.42,71.4,61.2,3.26,1.26,6.84,1.8,9.32-1.23l19.24-23.5c1.68-2.05,6.54-2,9.56-.53Z"/>
  </g>
</svg>