<?xml version="1.0" encoding="UTF-8"?>
<svg id="Capa_1" data-name="Capa 1" xmlns="http://www.w3.org/2000/svg" viewBox="0 0 1022.56 333.88">
  <defs>
    <style>
      .cls-1 {
        letter-spacing: .19em;
      }

      .cls-2 {
        fill: #f5c400;
      }

      .cls-3, .cls-4 {
        fill: #fff;
      }

      .cls-5 {
        letter-spacing: .21em;
      }

      .cls-4 {
        font-family: Barlow-Medium, Barlow;
        font-size: 27.89px;
        font-weight: 500;
      }

      .cls-6 {
        letter-spacing: .21em;
      }

      .cls-7 {
        letter-spacing: .21em;
      }

      .cls-8 {
        letter-spacing: .2em;
      }

      .cls-9 {
        letter-spacing: .2em;
      }
    </style>
  </defs>
  <g>
    <rect class="cls-3" x="890.89" y="201.7" width="6.66" height="6.66" rx=".08" ry=".08"/>
    <rect class="cls-3" x="929.65" y="201.7" width="6.66" height="6.66" rx=".08" ry=".08"/>
    <path class="cls-3" d="M883.05,191.54c-1.27-.63-3.02-1.35-5.25-2.17-2.01-.72-3.49-1.3-4.45-1.72-.96-.42-1.68-.9-2.17-1.44-.49-.53-.73-1.19-.73-1.98,0-1.1.42-1.96,1.25-2.59s1.99-.94,3.46-.94c1.88,0,3.37.46,4.45,1.39,1.08.93,1.63,2.05,1.63,3.37v.38c0,.16.05.29.16.4.11.11.24.16.4.16h5.42c.16,0,.29-.05.4-.16.11-.11.16-.24.16-.4v-.71c0-2.01-.53-3.78-1.58-5.3-1.05-1.52-2.51-2.71-4.38-3.56-1.87-.85-4-1.27-6.38-1.27-2.26,0-4.26.38-5.98,1.13-1.73.75-3.08,1.84-4.05,3.25-.97,1.41-1.46,3.06-1.46,4.95s.49,3.52,1.48,4.83c.99,1.3,2.21,2.33,3.67,3.09,1.46.75,3.24,1.49,5.35,2.21,1.88.69,3.26,1.23,4.12,1.62.86.39,1.55.85,2.05,1.37.5.52.75,1.15.75,1.91,0,1.04-.41,1.91-1.22,2.61-.82.71-2.06,1.06-3.72,1.06-1.98,0-3.55-.43-4.71-1.3-1.16-.86-1.74-1.92-1.74-3.18v-.71c0-.16-.06-.29-.16-.4-.11-.11-.24-.16-.4-.16h-5.37c-.16,0-.29.05-.4.16-.11.11-.16.24-.16.4v1.04c0,1.98.51,3.71,1.53,5.2,1.02,1.49,2.47,2.64,4.36,3.44,1.88.8,4.08,1.2,6.59,1.2,3.7,0,6.64-.85,8.81-2.57,2.17-1.71,3.25-4.04,3.25-6.99,0-1.98-.51-3.58-1.53-4.83-1.02-1.24-2.17-2.17-3.44-2.8Z"/>
    <path class="cls-3" d="M920.18,194.36c-.06-.16-.02-.27.14-.33,1.91-.63,3.41-1.7,4.47-3.23,1.07-1.52,1.6-3.35,1.6-5.49,0-1.98-.42-3.72-1.25-5.23-.83-1.51-2.01-2.67-3.53-3.49-1.52-.82-3.29-1.22-5.3-1.22h-13.47c-.16,0-.29.06-.4.16-.11.11-.16.24-.16.4v31.84c0,.16.05.29.16.4.11.11.24.16.4.16h5.51c.16,0,.29-.05.4-.16.11-.11.16-.24.16-.4v-12.86c0-.16.08-.24.24-.24h4.38c.12,0,.22.06.28.19l5.89,13.05c.12.28.34.42.66.42h5.79c.35,0,.52-.13.52-.38,0-.06-.03-.16-.09-.28l-6.41-13.33ZM918.56,188.43c-.83.79-1.91,1.18-3.23,1.18h-6.17c-.16,0-.24-.08-.24-.24v-8.05c0-.16.08-.24.24-.24h6.17c1.32,0,2.39.4,3.23,1.2.83.8,1.25,1.83,1.25,3.09s-.42,2.28-1.25,3.06Z"/>
    <path class="cls-3" d="M963.77,202.82c-.11-.11-.24-.16-.4-.16h-15.4c-.16,0-.24-.08-.24-.24v-26.47c0-.16-.05-.29-.16-.4-.11-.11-.24-.16-.4-.16h-5.51c-.16,0-.29.06-.4.16-.11.11-.16.24-.16.4v31.84c0,.16.05.29.16.4.11.11.24.16.4.16h21.71c.16,0,.29-.05.4-.16.11-.11.16-.24.16-.4v-4.57c0-.16-.05-.29-.16-.4Z"/>
  </g>
  <text class="cls-4" transform="translate(295 251.19)"><tspan class="cls-5" x="0" y="0">Di</tspan><tspan class="cls-6" x="36.06" y="0">s</tspan><tspan class="cls-7" x="55.47" y="0">tribución Side</tspan><tspan class="cls-8" x="307.1" y="0">r</tspan><tspan class="cls-7" x="323.08" y="0">o</tspan><tspan class="cls-9" x="344.41" y="0">m</tspan><tspan class="cls-8" x="373.14" y="0">e</tspan><tspan class="cls-7" x="393.72" y="0">talú</tspan><tspan class="cls-1" x="463.5" y="0">r</tspan><tspan class="cls-7" x="479.26" y="0">gica</tspan></text>
  <g>
    <path class="cls-2" d="M172.87,85.43l78.48,80.17c1.37,1.4,3.74.43,3.74-1.52v-80.17c0-1.2-.98-2.18-2.18-2.18h-78.48c-1.93,0-2.91,2.32-1.56,3.7Z"/>
    <path class="cls-2" d="M90.3,81.72h-44.56c-1.45,0-2.63,1.18-2.63,2.63v159.54c0,.69.27,1.35.75,1.84l46.15,47.16c.49.5,1.17.79,1.88.79h160.58c1.45,0,2.63-1.18,2.63-2.63v-39.04c0-1.45-1.18-2.63-2.63-2.63H95.55c-1.45,0-2.63-1.18-2.63-2.63V84.35c0-1.45-1.18-2.63-2.63-2.63Z"/>
  </g>
  <g>
    <path class="cls-3" d="M355.65,193.78h-40.58c-.35,0-.62-.27-.62-.62v-69.76c0-.4-.15-.75-.45-1.04s-.65-.45-1.04-.45h-14.53c-.42,0-.77.15-1.07.45-.27.3-.42.65-.42,1.04v65.94c0,.55.22,1.09.62,1.49l16.96,17.34c.4.42.94.65,1.51.65h39.61c.4,0,.77-.15,1.04-.45.3-.27.45-.65.45-1.04v-12.05c0-.42-.15-.77-.45-1.07-.27-.27-.65-.42-1.04-.42Z"/>
    <path class="cls-3" d="M416.35,145.01h-14.53c-.42,0-.77.15-1.07.42-.2.22-.35.47-.4.77-.02.1-.02.2-.02.3v39.09c-.42,2.73-1.54,4.94-3.35,6.63-1.81,1.71-4.15,2.56-6.95,2.56-3.15,0-5.61-1.04-7.38-3.1-1.79-2.06-2.68-4.74-2.68-8.07v-37.1c0-.42-.15-.77-.42-1.07-.3-.27-.65-.42-1.07-.42h-14.38c-.42,0-.77.15-1.07.42-.3.3-.42.65-.42,1.07v41.45c0,6.88,2.01,12.22,6.06,16.02,4.07,3.8,9.24,5.71,15.52,5.71,3.03,0,5.71-.42,8.05-1.29h.02l6.25-6.41c.7-.64,1.84-.16,1.84.79v4.84c.05.27.2.55.4.75.3.3.65.45,1.07.45h14.53c.4,0,.75-.15,1.04-.45.3-.27.42-.65.42-1.04v-60.82c0-.42-.12-.77-.42-1.07-.3-.27-.65-.42-1.04-.42ZM396.08,204.46l2.39-2.45s.02,0,.03-.02l-2.42,2.47Z"/>
    <path class="cls-3" d="M474.16,178.26c-3.38-2.73-8.02-4.97-13.88-6.71-1.34-.4-2.58-.75-3.73-1.04-1.17-.3-2.21-.57-3.1-.82-3.97-.89-6.81-1.76-8.52-2.61-1.69-.82-2.53-2.06-2.53-3.7,0-1.74.87-3.1,2.61-4.1,1.74-.99,3.97-1.49,6.71-1.49,3.05,0,5.51.62,7.38,1.86s2.81,2.76,2.81,4.59c0,.4.12.75.42,1.04.3.3.65.42,1.07.42h13.26c.42,0,.77-.12,1.07-.42.27-.3.42-.65.42-1.04,0-3.9-1.09-7.38-3.28-10.43-2.19-3.05-5.27-5.44-9.24-7.15-3.13-1.32-6.66-2.14-10.6-2.41-1.07-.07-2.16-.12-3.3-.12-7.87,0-14.18,1.79-18.92,5.39-4.77,3.6-7.15,8.47-7.15,14.6,0,3.18.65,5.89,1.96,8.12.72,1.24,1.64,2.33,2.76,3.28,3.15,2.66,7.38,4.89,12.67,6.71,2.24.92,5.29,1.86,9.19,2.86,3.38.82,5.84,1.61,7.33,2.36,1.49.75,2.24,1.86,2.24,3.35,0,1.66-.87,3.05-2.61,4.15-1.74,1.12-4.02,1.69-6.83,1.69-3.05,0-5.61-.65-7.65-1.94-2.01-1.27-3.03-2.83-3.03-4.64v-.12c0-.42-.15-.77-.42-1.04-.3-.3-.65-.45-1.07-.45h-13.78c-.4,0-.75.15-1.04.45-.3.27-.45.62-.45,1.04v1.24c0,3.55,1.14,6.76,3.43,9.56,2.26,2.81,5.46,4.99,9.61,6.58,4.15,1.56,8.99,2.36,14.53,2.36,8.2,0,14.7-1.71,19.55-5.17,4.84-3.43,7.25-8.2,7.25-14.33,0-5.22-1.69-9.19-5.09-11.92Z"/>
    <path class="cls-3" d="M541.44,163.51c-1.99-6.13-5.36-10.9-10.18-14.36-4.79-3.43-10.58-5.14-17.36-5.14s-12.91,1.74-17.88,5.22c-4.97,3.48-8.39,8.27-10.31,14.4-1.17,3.87-1.74,8.27-1.74,13.14,0,4.57.57,8.79,1.74,12.67,1.81,6.28,5.22,11.25,10.18,14.9,4.97,3.63,10.93,5.46,17.88,5.46s12.89-1.84,17.81-5.54c4.92-3.68,8.3-8.74,10.11-15.2,1.17-3.87,1.74-8.07,1.74-12.54s-.67-8.89-1.99-13.01ZM524.8,185.46c-.82,2.91-2.19,5.17-4.07,6.83-1.91,1.66-4.22,2.48-6.95,2.48s-5.19-.82-7.15-2.48c-1.94-1.66-3.33-3.92-4.15-6.83-.57-2.06-.87-4.97-.87-8.69s.32-6.83.99-8.82c.82-2.81,2.16-4.99,4.02-6.56,1.86-1.59,4.2-2.36,7.03-2.36s5.04.77,6.95,2.36c1.89,1.56,3.3,3.75,4.2,6.56.67,2.41.99,5.34.99,8.82,0,3.15-.32,6.06-.99,8.69Z"/>
  </g>
  <g>
    <path class="cls-2" d="M645.33,121.91h-14.53c-.75,0-1.32.35-1.74.99l-18.73,28.93c-.25.5-.5.5-.75,0l-18.63-28.93c-.42-.65-.99-.99-1.74-.99h-14.53c-.4,0-.75.15-1.04.45s-.45.65-.45,1.04v83.92c0,.4.15.77.45,1.04.3.3.65.45,1.04.45h14.53c.42,0,.77-.15,1.07-.45.27-.27.42-.65.42-1.04v-54.61c0-.32.07-.52.25-.57.17-.02.32.07.5.32l13.16,20.59c.4.67.99.99,1.74.99h7.33c.75,0,1.32-.32,1.74-.99l13.14-20.59c.17-.25.35-.37.5-.37.17,0,.25.17.25.5v54.74c0,.4.15.77.45,1.04.3.3.65.45,1.04.45h14.53c.42,0,.77-.15,1.07-.45.27-.27.42-.65.42-1.04v-83.92c0-.4-.15-.75-.42-1.04-.3-.3-.65-.45-1.07-.45Z"/>
    <path class="cls-2" d="M704.47,151.09c-1.42-1.34-2.93-2.51-4.59-3.48-4.25-2.48-9.36-3.73-15.32-3.73-4.02,0-7.7.65-11.03,1.99-2.11.79-4.07,1.89-5.91,3.23-4.74,3.48-8.1,8.15-9.98,14.03-1.24,3.48-1.86,7.48-1.86,12.02,0,6.16.75,11.25,2.21,15.25.12.35.25.7.4,1.02,2.14,5.79,5.69,10.31,10.6,13.54,1.42.94,2.93,1.74,4.55,2.36,2.81,1.19,5.91,1.94,9.26,2.26,1.37.15,2.78.22,4.25.22,5.14,0,9.86-.94,14.16-2.81,4.3-1.86,7.82-4.47,10.56-7.87.32-.5.5-.82.5-.99,0-.32-.22-.7-.62-1.12l-8.42-8.3-.52-.52c-.32-.32-.62-.5-.87-.5-.42,0-.79.25-1.12.75-3.05,4.22-7.25,6.38-12.54,6.46-6.61,0-11-2.31-13.16-6.95-.65-1.64-1.09-3.3-1.37-4.97-.15-.4,0-.62.52-.62h38.35c.99,0,1.51-.5,1.61-1.49.05-1.14.05-2.26.05-3.33-.02-2.61-.2-4.99-.55-7.23-1.09-8.02-4.12-14.43-9.14-19.22ZM695.6,170.93h-17.95c-.4,0-.79.16-1.07.45l-1.95,2.01-.12.12c-.1.07-.22.12-.37.12-.35,0-.62-.27-.62-.62v-1.56c0-.75.06-1.51.19-2.24.2-1.09.43-2.04.68-2.85,1.64-4.89,5.07-7.33,10.28-7.33,1.29,0,2.48.15,3.58.45,1.24.35,2.33.87,3.33,1.59,1.86,1.37,3.15,3.3,3.9,5.79.02,0,.22,1.17.62,3.45.17.42,0,.62-.5.62Z"/>
    <path class="cls-2" d="M754.81,145.01h-8.45c-.23,0-.46.09-.62.26l.25-.26-2.75,2.81c-.1.07-.21.12-.35.12-.35,0-.62-.27-.62-.62v-17.71c0-.4-.15-.77-.42-1.04-.3-.3-.65-.45-1.07-.45h-13.91c-.4,0-.75.15-1.04.45-.3.27-.45.65-.45,1.04v14.78c0,.34-.28.62-.62.62h-7.05c-.42,0-.77.15-1.07.42-.3.3-.42.65-.42,1.07v11.05c0,.4.12.77.42,1.04.3.3.65.45,1.07.45h7.05c.34,0,.62.28.62.62v33.26c.1,6.28,1.84,10.58,5.22,12.84,2.76,1.86,6.63,2.96,11.67,3.28,1.17.1,2.41.15,3.73.15,1.49,0,3.97-.1,7.45-.25.99-.17,1.49-.72,1.49-1.61v-11.8c0-.42-.15-.77-.45-1.07-.27-.27-.62-.42-1.04-.42h-4.1c-2.48,0-4.27-.67-5.39-1.99-1.12-1.32-1.69-3.35-1.69-6.08v-26.3c0-.34.28-.62.62-.62h11.92c.42,0,.77-.15,1.04-.45.3-.27.45-.65.45-1.04v-11.05c0-.42-.15-.77-.45-1.07-.27-.27-.62-.42-1.04-.42Z"/>
    <path class="cls-2" d="M842.01,122.35c-.3-.3-.65-.45-1.07-.45h-14.5c-.42,0-.77.15-1.07.45s-.42.65-.42,1.04v83.92c0,.4.12.77.42,1.04.3.3.65.45,1.07.45h14.5c.42,0,.77-.15,1.07-.45.27-.27.42-.65.42-1.04v-83.92c0-.4-.15-.75-.42-1.04Z"/>
    <path class="cls-2" d="M815.78,160.55c-.57-2.16-1.56-4.2-2.96-6.11-2.36-3.23-5.64-5.79-9.86-7.65-1.32-.57-2.68-1.07-4.1-1.44-3.15-.89-6.58-1.34-10.31-1.34-4.97,0-9.44.79-13.46,2.36-4.02,1.56-7.25,3.78-9.69,6.58-2.43,2.81-3.82,5.96-4.15,9.44-.1.57.37.94,1.37,1.12l15,1.99c.84.07,1.37-.35,1.61-1.24.5-1.66,1.59-2.96,3.3-3.85,1.69-.92,3.82-1.37,6.38-1.37,3.3,0,5.79.77,7.45,2.28,1.66,1.54,2.48,3.68,2.48,6.38v2.73c0,.42-.2.62-.62.62h-12.67c-8.27,0-14.63,1.76-19.1,5.29-4.47,3.5-6.71,8.47-6.71,14.83s1.99,10.75,5.96,13.91c1.24.97,2.58,1.79,4.07,2.43,3.25,1.54,7.1,2.28,11.55,2.28,3.65,0,6.85-.52,9.54-1.56l6.92-7.07c.24-.25.63-.25.87,0,.11.1.16.23.18.35v-1.41s0,0,0,0v7.22c0,.4.15.77.45,1.04.27.3.62.45,1.04.45h14.53c.4,0,.75-.15,1.04-.45.3-.27.45-.65.45-1.04v-42.07c0-1.61-.2-3.18-.6-4.67v-.02ZM798.87,182.11v4.47c0,2.98-1.24,5.41-3.73,7.33-2.48,1.91-5.51,2.86-9.07,2.86-1.86,0-3.45-.32-4.79-.97-.57-.27-1.07-.6-1.54-.97-1.56-1.27-2.36-3.03-2.36-5.27,0-2.56,1.07-4.54,3.18-5.96,2.11-1.39,5.02-2.11,8.74-2.11h5.99l3.21-3.28-.69.71c.24-.25.63-.25.88-.01.11.1.16.23.18.35v-1.42s0,0,0,0v4.27Z"/>
  </g>
</svg>